<?xml version="1.0" encoding="UTF-8"?>
<!DOCTYPE svg PUBLIC "-//W3C//DTD SVG 1.1//EN" "http://www.w3.org/Graphics/SVG/1.1/DTD/svg11.dtd">
<svg xmlns="http://www.w3.org/2000/svg" version="1.1" width="1280px" height="1280px" style="shape-rendering:geometricPrecision; text-rendering:geometricPrecision; image-rendering:optimizeQuality; fill-rule:evenodd; clip-rule:evenodd" xmlns:xlink="http://www.w3.org/1999/xlink">
<g><path style="opacity:1" fill="#f9f9f9" d="M 357.5,250.5 C 358.873,250.343 360.207,250.51 361.5,251C 392.105,284.273 423.438,316.94 455.5,349C 462.891,354.723 470.557,360.056 478.5,365C 489.44,370.054 500.274,375.221 511,380.5C 511.667,381.5 511.667,382.5 511,383.5C 491.5,401.667 472.667,420.5 454.5,440C 453.5,440.667 452.5,440.667 451.5,440C 429.432,419.388 407.932,398.221 387,376.5C 373.736,341.375 362.07,305.709 352,269.5C 351.491,262.523 353.325,256.189 357.5,250.5 Z"/></g>
<g><path style="opacity:1" fill="#f9f9f9" d="M 917.5,250.5 C 919.722,250.178 921.556,250.845 923,252.5C 925.674,256.846 927.507,261.513 928.5,266.5C 919.041,300.377 908.875,334.043 898,367.5C 895.411,373.016 892.078,378.016 888,382.5C 868.022,402.143 847.689,421.476 827,440.5C 807.126,420.96 787.626,401.126 768.5,381C 779.744,375.378 791.077,369.712 802.5,364C 811.521,358.156 820.188,351.822 828.5,345C 858.737,313.933 888.404,282.433 917.5,250.5 Z"/></g>
<g><path style="opacity:1" fill="#f9f9f9" d="M 631.5,344.5 C 632.721,345.028 633.887,345.695 635,346.5C 635.667,496.833 635.667,647.167 635,797.5C 604.307,805.048 573.474,812.048 542.5,818.5C 551.664,762.184 560.83,705.851 570,649.5C 570.717,643.775 570.384,638.109 569,632.5C 560.667,596.5 552.333,560.5 544,524.5C 515.815,499.312 487.982,473.812 460.5,448C 490.834,417.332 521.501,386.999 552.5,357C 554.392,356.027 556.392,355.36 558.5,355C 583.057,352.058 607.39,348.558 631.5,344.5 Z"/></g>
<g><path style="opacity:1" fill="#f9f9f9" d="M 645.5,344.5 C 671.814,348.414 698.147,352.248 724.5,356C 756.604,386.441 788.27,417.107 819.5,448C 791.992,473.84 764.159,499.34 736,524.5C 726.532,563.703 717.699,603.036 709.5,642.5C 718.892,700.848 728.059,759.182 737,817.5C 736.275,818.059 735.442,818.392 734.5,818.5C 704.206,811.477 674.04,804.143 644,796.5C 643.333,646.5 643.333,496.5 644,346.5C 644.717,345.956 645.217,345.289 645.5,344.5 Z"/></g>
<g><path style="opacity:1" fill="#f9f9f9" d="M 323.5,421.5 C 341.338,428.839 359.005,436.673 376.5,445C 397.543,452.903 418.71,460.403 440,467.5C 436.38,496.946 431.713,526.279 426,555.5C 425.167,556.333 424.333,557.167 423.5,558C 399.702,566.985 375.869,575.818 352,584.5C 330.274,577.37 309.107,568.87 288.5,559C 282.698,554.2 277.198,549.033 272,543.5C 251.231,518.573 231.064,493.24 211.5,467.5C 211.818,466.353 212.484,465.519 213.5,465C 250.77,451.749 287.437,437.249 323.5,421.5 Z"/></g>
<g><path style="opacity:1" fill="#f9f9f9" d="M 954.5,421.5 C 991.328,436.279 1028.33,450.779 1065.5,465C 1067.18,465.347 1068.18,466.347 1068.5,468C 1044.36,498.909 1019.03,528.909 992.5,558C 987.945,561.445 982.945,564.112 977.5,566C 961.47,572.601 945.303,578.768 929,584.5C 904.789,575.873 880.623,567.04 856.5,558C 855.299,557.097 854.465,555.931 854,554.5C 848.899,525.565 844.566,496.565 841,467.5C 879.984,454.75 917.817,439.416 954.5,421.5 Z"/></g>
<g><path style="opacity:1" fill="#f9f9f9" d="M 824.5,455.5 C 825.496,455.414 826.329,455.748 827,456.5C 833.122,490.431 838.455,524.431 843,558.5C 839.798,560.572 836.298,562.072 832.5,563C 818.577,566.643 804.744,570.476 791,574.5C 770.061,610.583 748.561,646.249 726.5,681.5C 725.914,681.291 725.414,680.957 725,680.5C 722.204,666.266 720.537,651.933 720,637.5C 727.704,601.351 736.037,565.351 745,529.5C 771.749,504.911 798.249,480.244 824.5,455.5 Z"/></g>
<g><path style="opacity:1" fill="#f9f9f9" d="M 453.5,457.5 C 454.873,457.343 456.207,457.51 457.5,458C 484.021,482.189 510.187,506.689 536,531.5C 543.872,566.524 551.872,601.524 560,636.5C 559.988,650.596 558.654,664.596 556,678.5C 555.451,682.617 553.784,683.284 551,680.5C 530.333,645.167 509.667,609.833 489,574.5C 472.263,569.273 455.43,564.273 438.5,559.5C 437.659,554.85 437.825,550.184 439,545.5C 443.944,516.172 448.777,486.839 453.5,457.5 Z"/></g>
<g><path style="opacity:1" fill="#f9f9f9" d="M 440.5,571.5 C 453.232,574.35 465.899,577.516 478.5,581C 488.044,595.917 497.21,611.084 506,626.5C 506.667,627.5 506.667,628.5 506,629.5C 489.196,630.828 472.363,630.828 455.5,629.5C 449.636,611.22 444.303,592.72 439.5,574C 439.743,573.098 440.077,572.265 440.5,571.5 Z"/></g>
<g><path style="opacity:1" fill="#f9f9f9" d="M 838.5,571.5 C 840.75,571.181 842.75,571.681 844.5,573C 838.953,590.681 833.787,608.514 829,626.5C 828.535,627.931 827.701,629.097 826.5,630C 808.503,630.5 790.503,630.667 772.5,630.5C 772.34,628.801 772.506,627.134 773,625.5C 781.959,611.083 790.792,596.583 799.5,582C 812.593,578.422 825.593,574.922 838.5,571.5 Z"/></g>
<g><path style="opacity:1" fill="#f9f9f9" d="M 452.5,640.5 C 473.836,640.333 495.169,640.5 516.5,641C 528.377,659.918 539.877,679.085 551,698.5C 551.332,703.19 550.998,707.857 550,712.5C 543.676,748.778 537.676,785.112 532,821.5C 531.529,823.246 530.862,824.913 530,826.5C 521.296,836.202 512.296,845.536 503,854.5C 502.228,854.355 501.561,854.022 501,853.5C 474.829,784.817 458.662,713.817 452.5,640.5 Z"/></g>
<g><path style="opacity:1" fill="#f9f9f9" d="M 762.5,640.5 C 784.503,640.333 806.503,640.5 828.5,641C 821.697,712.991 805.197,782.825 779,850.5C 776.974,855.502 774.307,855.835 771,851.5C 763.667,842.833 756.333,834.167 749,825.5C 741.843,784.225 735.01,742.892 728.5,701.5C 728.466,698.567 729.299,695.9 731,693.5C 741.511,675.806 752.011,658.139 762.5,640.5 Z"/></g>
<g><path style="opacity:1" fill="#f9f9f9" d="M 633.5,807.5 C 637.846,807.334 642.179,807.501 646.5,808C 677.172,815.001 707.838,822.001 738.5,829C 749.649,841.154 760.482,853.654 771,866.5C 776.375,893.369 780.709,920.369 784,947.5C 774.833,956.667 765.667,965.833 756.5,975C 754.562,976.872 752.229,977.705 749.5,977.5C 712.932,972.289 676.265,967.955 639.5,964.5C 604.398,967.763 569.398,971.929 534.5,977C 531.167,977.667 527.833,977.667 524.5,977C 515,967.5 505.5,958 496,948.5C 498.799,921.368 502.799,894.368 508,867.5C 517.667,855.833 527.333,844.167 537,832.5C 538.214,830.951 539.714,829.785 541.5,829C 572.397,822.258 603.064,815.091 633.5,807.5 Z M 551.5,851.5 C 554.564,851.144 557.231,851.977 559.5,854C 571.633,864.465 583.466,875.298 595,886.5C 595.397,893.62 594.23,900.453 591.5,907C 584.772,909.419 577.938,910.252 571,909.5C 563.076,893.318 555.41,876.985 548,860.5C 546.98,856.553 548.147,853.553 551.5,851.5 Z M 721.5,851.5 C 726.604,850.612 729.937,852.612 731.5,857.5C 723.944,874.947 716.11,892.28 708,909.5C 701.044,910.372 694.21,909.539 687.5,907C 684.531,900.15 683.364,892.983 684,885.5C 696.695,874.301 709.195,862.968 721.5,851.5 Z"/></g>
<g><path style="opacity:1" fill="#f9f9f9" d="M 630.5,974.5 C 637.175,974.334 643.842,974.5 650.5,975C 677.495,978.066 704.495,981.066 731.5,984C 732.428,984.388 733.095,985.055 733.5,986C 717.698,1010.76 695.032,1024.42 665.5,1027C 647.833,1029 630.167,1029 612.5,1027C 584.116,1023.66 562.449,1009.99 547.5,986C 547.905,985.055 548.572,984.388 549.5,984C 576.716,981.44 603.716,978.273 630.5,974.5 Z"/></g>
</svg>
