<?xml version="1.0" encoding="UTF-8"?>
<!DOCTYPE svg PUBLIC "-//W3C//DTD SVG 1.1//EN" "http://www.w3.org/Graphics/SVG/1.1/DTD/svg11.dtd">
<svg xmlns="http://www.w3.org/2000/svg" version="1.1" width="1512px" height="385px" style="shape-rendering:geometricPrecision; text-rendering:geometricPrecision; image-rendering:optimizeQuality; fill-rule:evenodd; clip-rule:evenodd" xmlns:xlink="http://www.w3.org/1999/xlink">
<g><path style="opacity:1" fill="#f9faf9" d="M 134.5,9.5 C 135.873,9.34332 137.207,9.50999 138.5,10C 152.124,25.6256 166.458,40.6256 181.5,55C 189.217,61.297 197.884,65.797 207.5,68.5C 207.657,69.8734 207.49,71.2068 207,72.5C 198.333,81.8333 189.333,90.8333 180,99.5C 169.749,90.252 159.749,80.5853 150,70.5C 145.554,64.0877 143.054,57.5877 142.5,51C 141.361,47.9167 140.028,44.9167 138.5,42C 139.458,40.8525 139.125,39.8525 137.5,39C 136.96,33.8161 135.293,28.3161 132.5,22.5C 133.668,21.0944 133.335,19.9277 131.5,19C 132.833,17.3333 132.833,15.6667 131.5,14C 133.301,13.6827 133.634,13.016 132.5,12C 133.381,11.2917 134.047,10.4584 134.5,9.5 Z"/></g>
<g><path style="opacity:1" fill="#f9faf9" d="M 397.5,9.5 C 399.167,9.5 400.833,9.5 402.5,9.5C 403.779,12.7654 404.445,15.932 404.5,19C 402.646,26.6779 399.98,34.3445 396.5,42C 396.833,42.3333 397.167,42.6667 397.5,43C 395.458,44.9409 394.792,47.1075 395.5,49.5C 394.26,52.3934 392.926,55.2267 391.5,58C 391.957,58.414 392.291,58.914 392.5,59.5C 391.573,60.9056 390.573,62.4056 389.5,64C 389.833,64.3333 390.167,64.6667 390.5,65C 379.983,77.0167 368.65,88.1834 356.5,98.5C 355.833,98.3333 355.167,98.1667 354.5,98C 345.651,88.7635 336.651,79.7635 327.5,71C 336.963,66.4358 345.963,61.1025 354.5,55C 369.093,39.9114 383.427,24.7447 397.5,9.5 Z"/></g>
<g><path style="opacity:1" fill="#f9faf9" d="M 262.5,52.5 C 263.5,52.5 264.5,52.5 265.5,52.5C 266.654,123.812 266.82,195.145 266,266.5C 251.733,270.42 237.399,274.087 223,277.5C 221.391,272.183 221.891,267.017 224.5,262C 224.384,260.732 224.051,259.398 223.5,258C 224.601,255.18 225.601,252.346 226.5,249.5C 226.968,239.175 228.634,228.675 231.5,218C 230.332,216.594 230.665,215.428 232.5,214.5C 232.013,213.554 231.68,212.554 231.5,211.5C 235.214,201.117 235.214,190.784 231.5,180.5C 230.474,173.498 228.807,166.331 226.5,159C 227.898,157.351 227.564,156.018 225.5,155C 226.727,153.413 226.394,152.079 224.5,151C 225.727,149.413 225.394,148.079 223.5,147C 223.833,146.667 224.167,146.333 224.5,146C 223.286,143.649 222.452,141.149 222,138.5C 208.533,126.701 195.366,114.534 182.5,102C 197.356,86.8066 212.356,72.14 227.5,58C 239.329,56.2883 250.996,54.4549 262.5,52.5 Z"/></g>
<g><path style="opacity:1" fill="#f9f9f9" d="M 270.5,52.5 C 283.638,53.9716 296.638,56.1383 309.5,59C 324.833,73 339.5,87.6667 353.5,103C 340.375,114.787 327.208,126.621 314,138.5C 311.791,146.349 309.624,154.682 307.5,163.5C 308.668,164.906 308.335,166.072 306.5,167C 307.022,167.561 307.355,168.228 307.5,169C 305.038,177.657 302.705,185.657 300.5,193C 302.434,194.954 302.767,197.12 301.5,199.5C 301.808,200.308 302.308,200.975 303,201.5C 303.897,208.385 305.064,215.218 306.5,222C 305.085,223.951 305.419,225.618 307.5,227C 306.001,229.27 306.335,231.27 308.5,233C 307.122,235.098 307.456,236.932 309.5,238.5C 309.291,239.086 308.957,239.586 308.5,240C 309.658,244.106 310.658,248.272 311.5,252.5C 311.291,253.086 310.957,253.586 310.5,254C 312.543,256.117 312.876,258.45 311.5,261C 312.022,261.95 312.689,262.784 313.5,263.5C 313.291,264.086 312.957,264.586 312.5,265C 313.648,268.719 314.314,272.552 314.5,276.5C 298.934,274.15 283.768,270.483 269,265.5C 268.333,195.833 268.333,126.167 269,56.5C 269.41,55.0993 269.91,53.766 270.5,52.5 Z"/></g>
<g><path style="opacity:1" fill="#f9faf9" d="M 118.5,88.5 C 127.263,92.0466 135.929,95.8799 144.5,100C 154.35,103.505 164.183,107.005 174,110.5C 174.512,116.583 173.678,122.416 171.5,128C 171.833,129 172.167,130 172.5,131C 171.833,131.667 171.167,132.333 170.5,133C 172.147,135.196 171.813,137.029 169.5,138.5C 170.155,143.586 169.489,148.586 167.5,153.5C 165.742,154.128 164.242,155.128 163,156.5C 162.667,156.167 162.333,155.833 162,155.5C 159.796,157.017 157.462,158.35 155,159.5C 154.667,159.167 154.333,158.833 154,158.5C 146.257,163.008 139.09,166.008 132.5,167.5C 124.778,164.719 116.445,161.552 107.5,158C 101.788,155.457 97.1218,151.623 93.5,146.5C 84.4468,136.117 75.7801,125.45 67.5,114.5C 66.0499,113.15 65.3832,111.484 65.5,109.5C 83.6161,103.465 101.283,96.4649 118.5,88.5 Z"/></g>
<g><path style="opacity:1" fill="#f9f9f9" d="M 416.5,88.5 C 433.7,95.5974 451.033,102.431 468.5,109C 470.497,110.153 470.83,111.653 469.5,113.5C 458.201,126.091 447.367,139.091 437,152.5C 433.371,154.829 429.704,157.163 426,159.5C 425.667,159.167 425.333,158.833 425,158.5C 418.498,162.439 412.664,164.772 407.5,165.5C 406.11,167.203 404.61,167.87 403,167.5C 401.406,166.427 399.906,165.427 398.5,164.5C 397.158,165.902 396.324,165.569 396,163.5C 395.667,163.833 395.333,164.167 395,164.5C 391.544,163.019 388.211,161.352 385,159.5C 383.984,160.634 383.317,160.301 383,158.5C 381.667,158.5 380.333,158.5 379,158.5C 376.667,157.167 374.333,155.833 372,154.5C 371.586,154.957 371.086,155.291 370.5,155.5C 367.918,153.806 367.251,151.639 368.5,149C 366.272,139.701 364.272,130.034 362.5,120C 363.739,117.787 363.406,115.787 361.5,114C 361.862,112.775 362.362,111.609 363,110.5C 381.441,104.415 399.274,97.0816 416.5,88.5 Z"/></g>
<g><path style="opacity:1" fill="#f9faf9" d="M 355.5,104.5 C 357.45,108.866 358.783,113.533 359.5,118.5C 358.404,120.513 358.737,122.346 360.5,124C 359.248,126.196 359.581,128.196 361.5,130C 360.978,130.561 360.645,131.228 360.5,132C 363.142,139.688 364.142,147.522 363.5,155.5C 360.523,156.071 357.69,157.071 355,158.5C 354.667,158.167 354.333,157.833 354,157.5C 352.921,159.394 351.587,159.727 350,158.5C 349.395,160.481 348.395,160.815 347,159.5C 344.184,160.662 341.35,161.829 338.5,163C 338.833,163.333 339.167,163.667 339.5,164C 329.231,179.879 319.231,195.879 309.5,212C 308.4,212.432 307.733,211.932 307.5,210.5C 306.265,206.473 305.932,202.473 306.5,198.5C 305.617,197.452 304.95,196.285 304.5,195C 306.701,179.519 310.368,164.186 315.5,149C 315.043,148.586 314.709,148.086 314.5,147.5C 314.936,144.56 316.102,141.56 318,138.5C 330.644,127.358 343.144,116.024 355.5,104.5 Z"/></g>
<g><path style="opacity:1" fill="#f9faf9" d="M 180.5,105.5 C 188.771,112.651 197.104,119.818 205.5,127C 210.728,131.891 215.561,137.058 220,142.5C 224.2,159.027 228.034,176.194 231.5,194C 230.538,199.813 229.704,205.646 229,211.5C 228.586,211.957 228.086,212.291 227.5,212.5C 220.996,204.167 215.496,195.167 211,185.5C 205.859,179.327 202.025,172.827 199.5,166C 197.694,164.194 195.86,162.36 194,160.5C 192.089,160.255 190.089,160.255 188,160.5C 187.395,158.519 186.395,158.185 185,159.5C 182.667,158.5 180.333,157.5 178,156.5C 176.853,157.458 175.853,157.125 175,155.5C 174.667,155.833 174.333,156.167 174,156.5C 173.044,155.421 172.211,154.255 171.5,153C 173.058,140.295 175.725,126.795 179.5,112.5C 179.167,111.833 178.833,111.167 178.5,110.5C 179.95,109.15 180.617,107.484 180.5,105.5 Z"/></g>
<g><path style="opacity:1" fill="#f9faf9" d="M 566.5,106.5 C 575.839,106.334 585.173,106.5 594.5,107C 596.848,107.346 598.681,108.513 600,110.5C 612.824,136.149 626.157,161.483 640,186.5C 651.848,161.464 663.182,136.131 674,110.5C 675.319,108.513 677.152,107.346 679.5,107C 689.933,106.05 700.266,106.383 710.5,108C 711.701,108.903 712.535,110.069 713,111.5C 713.988,151.584 713.655,191.584 712,231.5C 711.097,232.701 709.931,233.535 708.5,234C 698.833,234.667 689.167,234.667 679.5,234C 678.069,233.535 676.903,232.701 676,231.5C 674.691,212.256 674.024,192.923 674,173.5C 665.721,193.001 657.055,212.334 648,231.5C 647.097,232.701 645.931,233.535 644.5,234C 637.392,234.924 630.392,234.591 623.5,233C 618.874,225.583 614.374,218.083 610,210.5C 602.843,195.518 595.177,180.852 587,166.5C 586.667,187.833 586.333,209.167 586,230.5C 584.786,232.049 583.286,233.215 581.5,234C 575.388,234.909 569.388,234.576 563.5,233C 562.299,232.097 561.465,230.931 561,229.5C 560.333,190.167 560.333,150.833 561,111.5C 562.107,108.887 563.94,107.22 566.5,106.5 Z"/></g>
<g><path style="opacity:1" fill="#f9faf9" d="M 739.5,106.5 C 749.58,106.077 759.58,106.577 769.5,108C 770.701,108.903 771.535,110.069 772,111.5C 772.667,150.833 772.667,190.167 772,229.5C 771.167,231.667 769.667,233.167 767.5,234C 757.833,234.667 748.167,234.667 738.5,234C 736.333,233.167 734.833,231.667 734,229.5C 733.333,190.167 733.333,150.833 734,111.5C 735.107,108.887 736.94,107.22 739.5,106.5 Z"/></g>
<g><path style="opacity:1" fill="#f9faf9" d="M 798.5,106.5 C 807.839,106.334 817.173,106.5 826.5,107C 827.931,107.465 829.097,108.299 830,109.5C 831.301,124.074 831.967,138.74 832,153.5C 847.195,137.971 862.695,122.804 878.5,108C 887.424,106.42 896.424,106.087 905.5,107C 910.692,109.531 911.526,113.031 908,117.5C 893.986,131.347 880.153,145.347 866.5,159.5C 882.565,180.617 898.399,201.95 914,223.5C 916.157,226.865 915.991,230.032 913.5,233C 907.103,234.128 900.603,234.628 894,234.5C 887.397,234.628 880.897,234.128 874.5,233C 862.314,217.808 850.481,202.308 839,186.5C 836,188.167 833.667,190.5 832,193.5C 831.962,206.262 831.295,218.928 830,231.5C 829.097,232.701 827.931,233.535 826.5,234C 816.833,234.667 807.167,234.667 797.5,234C 796.069,233.535 794.903,232.701 794,231.5C 792.345,191.584 792.012,151.584 793,111.5C 794.107,108.887 795.94,107.22 798.5,106.5 Z"/></g>
<g><path style="opacity:1" fill="#f9faf9" d="M 925.5,106.5 C 934.839,106.334 944.173,106.5 953.5,107C 956.667,107.5 958.5,109.333 959,112.5C 959.5,146.165 959.667,179.832 959.5,213.5C 982.169,213.333 1004.84,213.5 1027.5,214C 1029.33,214.5 1030.5,215.667 1031,217.5C 1031.67,221.833 1031.67,226.167 1031,230.5C 1029.83,231.667 1028.67,232.833 1027.5,234C 993.5,234.667 959.5,234.667 925.5,234C 923.714,233.215 922.214,232.049 921,230.5C 920.333,190.5 920.333,150.5 921,110.5C 922.25,108.807 923.75,107.473 925.5,106.5 Z"/></g>
<g><path style="opacity:1" fill="#f9faf9" d="M 1047.5,106.5 C 1056.84,106.334 1066.17,106.5 1075.5,107C 1079.13,108.052 1080.96,110.552 1081,114.5C 1081.67,151.833 1081.67,189.167 1081,226.5C 1080.88,229.911 1079.38,232.411 1076.5,234C 1066.83,234.667 1057.17,234.667 1047.5,234C 1045.71,233.215 1044.21,232.049 1043,230.5C 1042.33,190.5 1042.33,150.5 1043,110.5C 1044.4,108.93 1045.9,107.596 1047.5,106.5 Z"/></g>
<g><path style="opacity:1" fill="#f9faf9" d="M 1106.5,106.5 C 1115.84,106.334 1125.17,106.5 1134.5,107C 1136.33,107.273 1137.83,108.107 1139,109.5C 1140.02,139.145 1141.02,168.812 1142,198.5C 1145.67,210.432 1153.83,216.098 1166.5,215.5C 1179.72,216.158 1187.89,210.158 1191,197.5C 1191.97,168.12 1192.97,138.787 1194,109.5C 1195.17,108.107 1196.67,107.273 1198.5,107C 1207.5,106.333 1216.5,106.333 1225.5,107C 1227.33,107.273 1228.83,108.107 1230,109.5C 1231.65,136.413 1231.98,163.413 1231,190.5C 1226.63,216.873 1211.13,231.706 1184.5,235C 1167.63,237.404 1150.96,236.404 1134.5,232C 1115.53,225.034 1104.7,211.534 1102,191.5C 1101.33,164.5 1101.33,137.5 1102,110.5C 1103.25,108.807 1104.75,107.473 1106.5,106.5 Z"/></g>
<g><path style="opacity:1" fill="#f9faf9" d="M 1251.5,106.5 C 1260.84,106.334 1270.17,106.5 1279.5,107C 1282.2,107.69 1284.36,109.19 1286,111.5C 1298.66,136.816 1311.82,161.816 1325.5,186.5C 1337.14,161.418 1348.31,136.085 1359,110.5C 1360.32,108.513 1362.15,107.346 1364.5,107C 1374.93,106.05 1385.27,106.383 1395.5,108C 1396.7,108.903 1397.53,110.069 1398,111.5C 1398.99,151.584 1398.65,191.584 1397,231.5C 1396.1,232.701 1394.93,233.535 1393.5,234C 1383.83,234.667 1374.17,234.667 1364.5,234C 1363.07,233.535 1361.9,232.701 1361,231.5C 1359.69,212.256 1359.02,192.923 1359,173.5C 1350.92,192.648 1342.59,211.648 1334,230.5C 1332.79,232.049 1331.29,233.215 1329.5,234C 1322.39,234.924 1315.39,234.591 1308.5,233C 1295.87,211.568 1283.87,189.735 1272.5,167.5C 1271.67,188.492 1271.17,209.492 1271,230.5C 1269.79,232.049 1268.29,233.215 1266.5,234C 1260.39,234.909 1254.39,234.576 1248.5,233C 1247.3,232.097 1246.47,230.931 1246,229.5C 1245.33,190.167 1245.33,150.833 1246,111.5C 1247.11,108.887 1248.94,107.22 1251.5,106.5 Z"/></g>
<g><path style="opacity:1" fill="#f2f2f2" d="M 905.5,110.5 C 906.525,110.897 906.692,111.563 906,112.5C 890.857,127.872 875.357,143.039 859.5,158C 877.026,181.359 894.36,204.859 911.5,228.5C 900.272,229.177 889.105,229.843 878,230.5C 865.359,213.026 852.526,195.692 839.5,178.5C 835.182,182.318 831.015,186.318 827,190.5C 826.5,203.496 826.333,216.496 826.5,229.5C 816.79,229.553 807.29,229.553 798,229.5C 797.5,190.168 797.333,150.835 797.5,111.5C 807.167,111.5 816.833,111.5 826.5,111.5C 826.333,129.503 826.5,147.503 827,165.5C 844.806,147.694 862.64,129.86 880.5,112C 889.01,111.829 897.343,111.329 905.5,110.5 Z"/></g>
<g><path style="opacity:1" fill="#f2f3f2" d="M 1046.5,110.5 C 1056.42,111.474 1066.42,111.807 1076.5,111.5C 1076.67,150.835 1076.5,190.168 1076,229.5C 1066.79,229.208 1057.46,229.542 1048,230.5C 1047.82,190.459 1047.32,150.459 1046.5,110.5 Z"/></g>
<g><path style="opacity:1" fill="#f2f2f2" d="M 565.5,111.5 C 575.522,111.168 585.522,111.501 595.5,112.5C 610.667,141.5 625.833,170.5 641,199.5C 653.517,170.47 666.017,141.47 678.5,112.5C 688.478,111.501 698.478,111.168 708.5,111.5C 708.667,151.168 708.5,190.835 708,230.5C 698.583,229.515 689.083,229.182 679.5,229.5C 679.667,202.498 679.5,175.498 679,148.5C 667.403,175.126 655.903,201.792 644.5,228.5C 638.167,229.833 631.833,229.833 625.5,228.5C 610.715,200.594 596.215,172.594 582,144.5C 581.5,172.831 581.333,201.165 581.5,229.5C 576.122,229.602 570.955,229.602 566,229.5C 565.5,190.168 565.333,150.835 565.5,111.5 Z"/></g>
<g><path style="opacity:1" fill="#f2f3f2" d="M 738.5,111.5 C 748.167,111.5 757.833,111.5 767.5,111.5C 767.5,150.833 767.5,190.167 767.5,229.5C 757.833,229.5 748.167,229.5 738.5,229.5C 738.5,190.167 738.5,150.833 738.5,111.5 Z"/></g>
<g><path style="opacity:1" fill="#f2f3f2" d="M 925.5,111.5 C 935.167,111.5 944.833,111.5 954.5,111.5C 954.5,147.167 954.5,182.833 954.5,218.5C 978.836,218.333 1003.17,218.5 1027.5,219C 1026.59,223.015 1026.26,226.848 1026.5,230.5C 992.365,229.511 958.365,229.178 924.5,229.5C 925.493,190.278 925.826,150.944 925.5,111.5 Z"/></g>
<g><path style="opacity:1" fill="#f2f2f2" d="M 1106.5,111.5 C 1116.17,111.5 1125.83,111.5 1135.5,111.5C 1135.04,140.875 1135.54,170.209 1137,199.5C 1138.41,205.486 1141.24,210.652 1145.5,215C 1158.43,221.427 1171.76,221.76 1185.5,216C 1192.67,209.999 1196.67,202.332 1197.5,193C 1197.48,166.041 1197.48,138.875 1197.5,111.5C 1207.17,111.5 1216.83,111.5 1226.5,111.5C 1226.67,137.502 1226.5,163.502 1226,189.5C 1223.75,209.071 1213.41,222.071 1195,228.5C 1194.67,228.167 1194.33,227.833 1194,227.5C 1188.38,229.047 1182.71,230.381 1177,231.5C 1170.4,231.232 1163.57,231.232 1156.5,231.5C 1147.3,230.16 1138.3,227.993 1129.5,225C 1118.24,218.723 1111.08,209.223 1108,196.5C 1107.11,190.962 1106.27,185.462 1105.5,180C 1106.45,157.082 1106.78,134.248 1106.5,111.5 Z"/></g>
<g><path style="opacity:1" fill="#f2f2f2" d="M 1250.5,111.5 C 1260.52,111.168 1270.52,111.501 1280.5,112.5C 1295.65,141.469 1310.82,170.469 1326,199.5C 1338.79,170.25 1351.29,140.917 1363.5,111.5C 1373.5,111.5 1383.5,111.5 1393.5,111.5C 1393.67,151.168 1393.5,190.835 1393,230.5C 1383.54,229.542 1374.21,229.208 1365,229.5C 1364.67,202.5 1364.33,175.5 1364,148.5C 1352.78,175.283 1341.28,201.95 1329.5,228.5C 1323.17,229.833 1316.83,229.833 1310.5,228.5C 1296.51,200.518 1282.01,172.851 1267,145.5C 1266.17,173.739 1266.34,201.905 1267.5,230C 1261.92,229.598 1256.25,229.431 1250.5,229.5C 1250.5,190.167 1250.5,150.833 1250.5,111.5 Z"/></g>
<g><path style="opacity:1" fill="#f9f9f9" d="M 173.5,159.5 C 179.894,160.686 186.228,162.186 192.5,164C 197.984,171.432 202.484,179.265 206,187.5C 197.579,188.649 189.079,188.816 180.5,188C 178.933,182.261 176.933,175.928 174.5,169C 174.645,168.228 174.978,167.561 175.5,167C 174.455,165.384 173.455,163.717 172.5,162C 173.252,161.329 173.586,160.496 173.5,159.5 Z"/></g>
<g><path style="opacity:1" fill="#f9faf9" d="M 359.5,159.5 C 361.75,159.181 363.75,159.681 365.5,161C 363.519,161.605 363.185,162.605 364.5,164C 362.033,171.75 359.866,179.25 358,186.5C 357.5,187 357,187.5 356.5,188C 347.84,188.5 339.173,188.666 330.5,188.5C 330.34,186.801 330.506,185.134 331,183.5C 334.849,177.632 338.516,171.632 342,165.5C 347.807,163.31 353.64,161.31 359.5,159.5 Z"/></g>
<g><path style="opacity:1" fill="#f9faf9" d="M 179.5,191.5 C 189.855,191.168 200.188,191.501 210.5,192.5C 216.373,201.874 222.039,211.374 227.5,221C 226.937,223.727 226.27,226.393 225.5,229C 225.833,229.333 226.167,229.667 226.5,230C 224.724,231.671 224.39,233.504 225.5,235.5C 223.849,237.402 223.516,239.402 224.5,241.5C 224.023,242.478 223.357,243.311 222.5,244C 222.435,252.566 221.102,261.066 218.5,269.5C 219.734,271.398 219.401,273.065 217.5,274.5C 217.833,275.167 218.167,275.833 218.5,276.5C 214.607,282.899 209.774,288.566 204,293.5C 203.228,293.355 202.561,293.022 202,292.5C 194.094,271.727 187.927,250.227 183.5,228C 184.627,225.702 184.294,223.535 182.5,221.5C 182.833,220.833 183.167,220.167 183.5,219.5C 181.762,213.292 180.429,206.959 179.5,200.5C 179.68,199.446 180.013,198.446 180.5,197.5C 178.454,195.719 178.12,193.719 179.5,191.5 Z"/></g>
<g><path style="opacity:1" fill="#f9faf9" d="M 326.5,191.5 C 336.839,191.334 347.172,191.5 357.5,192C 357.957,192.414 358.291,192.914 358.5,193.5C 355.144,208.439 352.144,223.439 349.5,238.5C 349.833,239.167 350.167,239.833 350.5,240.5C 349.65,242.621 348.65,244.788 347.5,247C 347.957,247.414 348.291,247.914 348.5,248.5C 345.896,254.719 344.23,260.552 343.5,266C 340.935,271.026 339.268,276.026 338.5,281C 336.296,285.896 334.129,290.396 332,294.5C 326.57,288.911 321.737,282.911 317.5,276.5C 317.446,273.366 317.446,270.199 317.5,267C 315.955,264.915 315.622,262.748 316.5,260.5C 314.73,259.18 314.397,257.68 315.5,256C 313.712,248.061 312.045,240.061 310.5,232C 310.645,231.228 310.978,230.561 311.5,230C 310.519,226.981 309.519,223.981 308.5,221C 313.682,210.551 319.682,200.718 326.5,191.5 Z"/></g>
<g><path style="opacity:1" fill="#f2f2f2" d="M 669.5,262.5 C 676.196,261.849 682.529,263.015 688.5,266C 692.192,268.55 693.858,272.05 693.5,276.5C 691.143,276.663 688.81,276.497 686.5,276C 682.696,267.621 676.696,265.621 668.5,270C 661.845,277.627 661.845,285.294 668.5,293C 678.457,298.001 683.457,295.168 683.5,284.5C 679.5,284.5 675.5,284.5 671.5,284.5C 671.5,282.833 671.5,281.167 671.5,279.5C 678.833,279.5 686.167,279.5 693.5,279.5C 693.828,284.875 693.495,290.208 692.5,295.5C 682.449,301.476 672.116,301.976 661.5,297C 654.963,291.245 652.797,284.078 655,275.5C 657.524,268.471 662.357,264.137 669.5,262.5 Z"/></g>
<g><path style="opacity:1" fill="#f2f2f2" d="M 835.5,262.5 C 837.924,262.192 840.257,262.526 842.5,263.5C 848.959,275.077 854.292,287.077 858.5,299.5C 855.167,299.5 851.833,299.5 848.5,299.5C 848.105,292.115 844.272,289.449 837,291.5C 834.167,291.667 831.333,291.833 828.5,292C 827.167,294.333 825.833,296.667 824.5,299C 822.19,299.497 819.857,299.663 817.5,299.5C 822.696,286.775 828.696,274.441 835.5,262.5 Z M 836.5,273.5 C 838.868,277.067 840.868,280.9 842.5,285C 838.833,285.667 835.167,285.667 831.5,285C 833.864,281.441 835.531,277.608 836.5,273.5 Z"/></g>
<g><path style="opacity:1" fill="#f2f2f2" d="M 862.5,263.5 C 870.507,263.334 878.507,263.5 886.5,264C 893.628,266.758 896.128,271.924 894,279.5C 892.332,283.165 889.499,285.332 885.5,286C 881.179,286.499 876.846,286.666 872.5,286.5C 872.5,290.833 872.5,295.167 872.5,299.5C 869.167,299.5 865.833,299.5 862.5,299.5C 862.5,287.5 862.5,275.5 862.5,263.5 Z M 872.5,268.5 C 875.909,268.249 879.242,268.583 882.5,269.5C 886.408,278.952 883.075,282.952 872.5,281.5C 872.5,277.167 872.5,272.833 872.5,268.5 Z"/></g>
<g><path style="opacity:1" fill="#f1f1f1" d="M 899.5,263.5 C 902.833,263.5 906.167,263.5 909.5,263.5C 909.5,275.5 909.5,287.5 909.5,299.5C 906.167,299.5 902.833,299.5 899.5,299.5C 899.5,287.5 899.5,275.5 899.5,263.5 Z"/></g>
<g><path style="opacity:1" fill="#f2f2f2" d="M 1050.5,263.5 C 1061.5,263.5 1072.5,263.5 1083.5,263.5C 1083.5,265.167 1083.5,266.833 1083.5,268.5C 1075.83,268.5 1068.17,268.5 1060.5,268.5C 1060.5,271.5 1060.5,274.5 1060.5,277.5C 1067.5,277.5 1074.5,277.5 1081.5,277.5C 1081.5,279.167 1081.5,280.833 1081.5,282.5C 1074.5,282.5 1067.5,282.5 1060.5,282.5C 1060.5,286.5 1060.5,290.5 1060.5,294.5C 1068.17,294.5 1075.83,294.5 1083.5,294.5C 1083.5,296.167 1083.5,297.833 1083.5,299.5C 1072.5,299.5 1061.5,299.5 1050.5,299.5C 1050.5,287.5 1050.5,275.5 1050.5,263.5 Z"/></g>
<g><path style="opacity:1" fill="#f2f2f2" d="M 968.5,264.5 C 972.5,264.5 976.5,264.5 980.5,264.5C 980.785,266.288 980.452,267.955 979.5,269.5C 976.26,267.809 974.26,268.809 973.5,272.5C 975.743,273.474 978.076,273.808 980.5,273.5C 980.714,275.144 980.38,276.644 979.5,278C 977.527,278.495 975.527,278.662 973.5,278.5C 973.5,285.5 973.5,292.5 973.5,299.5C 970.5,299.5 967.5,299.5 964.5,299.5C 964.5,292.5 964.5,285.5 964.5,278.5C 963.167,278.5 961.833,278.5 960.5,278.5C 960.5,276.833 960.5,275.167 960.5,273.5C 961.833,273.5 963.167,273.5 964.5,273.5C 964.683,269.937 966.017,266.937 968.5,264.5 Z"/></g>
<g><path style="opacity:1" fill="#f2f2f2" d="M 788.5,266.5 C 790.833,266.5 793.167,266.5 795.5,266.5C 795.5,268.833 795.5,271.167 795.5,273.5C 797.833,273.5 800.167,273.5 802.5,273.5C 802.166,277.648 799.833,279.315 795.5,278.5C 795.334,283.511 795.501,288.511 796,293.5C 797.427,295.787 799.261,296.12 801.5,294.5C 803.109,299.323 801.275,301.323 796,300.5C 791.8,300.902 788.8,299.235 787,295.5C 786.501,289.843 786.334,284.176 786.5,278.5C 785.167,278.5 783.833,278.5 782.5,278.5C 781.833,274.5 783.5,272.833 787.5,273.5C 787.674,271.139 788.007,268.806 788.5,266.5 Z"/></g>
<g><path style="opacity:1" fill="#f9f9f9" d="M 264.5,269.5 C 266.67,270.768 268.837,270.768 271,269.5C 273.057,270.685 275.057,271.685 277,272.5C 278.938,271.14 280.604,271.473 282,273.5C 282.333,273.167 282.667,272.833 283,272.5C 293.13,275.732 303.297,278.232 313.5,280C 319.347,285.547 324.847,291.38 330,297.5C 332.345,309.752 334.511,321.918 336.5,334C 336.333,335.167 336.167,336.333 336,337.5C 331.5,342 327,346.5 322.5,351C 304.321,349.624 286.154,347.791 268,345.5C 251.145,347.294 234.311,349.294 217.5,351.5C 216.167,351.333 214.833,351.167 213.5,351C 209,346.5 204.5,342 200,337.5C 200.048,335.074 199.881,332.741 199.5,330.5C 201.531,328.751 201.865,326.751 200.5,324.5C 201.77,322.452 202.103,320.452 201.5,318.5C 202.435,314.659 203.435,310.826 204.5,307C 203.632,305.135 203.966,303.302 205.5,301.5C 205.167,300.833 204.833,300.167 204.5,299.5C 210.338,292.54 216.004,286.04 221.5,280C 233.106,277.906 245.106,275.073 257.5,271.5C 258.962,272.471 260.295,272.138 261.5,270.5C 263.225,272.092 264.225,271.758 264.5,269.5 Z M 226.5,292.5 C 234.026,296.789 240.692,302.289 246.5,309C 246.038,310.722 245.872,312.555 246,314.5C 245,315.833 244,317.167 243,318.5C 241.883,318.335 240.716,318.002 239.5,317.5C 238.833,318.167 238.167,318.833 237.5,319.5C 236.352,317.851 235.019,316.351 233.5,315C 234.634,313.984 234.301,313.317 232.5,313C 232.833,312.667 233.167,312.333 233.5,312C 230.333,305.978 227.333,300.311 224.5,295C 225.381,294.292 226.047,293.458 226.5,292.5 Z M 306.5,292.5 C 308.103,292.312 309.437,292.812 310.5,294C 309.167,295 309.167,296 310.5,297C 308.699,297.317 308.366,297.984 309.5,299C 306.786,304.421 303.786,309.754 300.5,315C 300.833,315.333 301.167,315.667 301.5,316C 300.299,316.903 299.465,318.069 299,319.5C 297.011,317.616 295.011,317.283 293,318.5C 291.833,317.333 290.667,316.167 289.5,315C 289.727,312.631 289.893,310.131 290,307.5C 295.695,302.634 301.195,297.634 306.5,292.5 Z"/></g>
<g><path style="opacity:1" fill="#f2f2f2" d="M 698.5,273.5 C 702.03,272.989 705.196,273.656 708,275.5C 710.565,273.821 713.398,273.154 716.5,273.5C 716.5,275.5 716.5,277.5 716.5,279.5C 711.942,278.38 709.109,280.047 708,284.5C 707.501,289.489 707.334,294.489 707.5,299.5C 704.5,299.5 701.5,299.5 698.5,299.5C 698.5,290.833 698.5,282.167 698.5,273.5 Z"/></g>
<g><path style="opacity:1" fill="#f2f2f2" d="M 726.5,273.5 C 732.762,272.872 738.762,273.705 744.5,276C 747.32,279.292 748.653,283.125 748.5,287.5C 741.137,287.169 733.803,287.503 726.5,288.5C 728.1,295.212 732.1,297.212 738.5,294.5C 739.624,293.086 740.624,291.586 741.5,290C 743.473,289.505 745.473,289.338 747.5,289.5C 747.279,295.231 744.279,298.731 738.5,300C 722.924,302.424 716.424,295.924 719,280.5C 720.742,277.254 723.242,274.921 726.5,273.5 Z M 731.5,277.5 C 735.474,277.15 738.14,278.817 739.5,282.5C 735.5,283.833 731.5,283.833 727.5,282.5C 728.16,280.185 729.493,278.519 731.5,277.5 Z"/></g>
<g><path style="opacity:1" fill="#f2f2f2" d="M 759.5,273.5 C 764.179,273.334 768.845,273.501 773.5,274C 775.286,274.785 776.786,275.951 778,277.5C 779.203,284.76 780.037,292.093 780.5,299.5C 777.091,299.751 773.758,299.417 770.5,298.5C 764.171,301.593 758.338,300.927 753,296.5C 752.333,293.5 752.333,290.5 753,287.5C 754.214,285.951 755.714,284.785 757.5,284C 755.866,283.506 754.199,283.34 752.5,283.5C 752.551,278.465 754.885,275.132 759.5,273.5 Z M 763.5,277.5 C 766.9,277.032 769.233,278.365 770.5,281.5C 766.869,283.055 763.203,283.388 759.5,282.5C 760.16,280.185 761.493,278.519 763.5,277.5 Z M 764.5,287.5 C 766.5,287.5 768.5,287.5 770.5,287.5C 771.501,294 768.835,296.5 762.5,295C 759.759,291.711 760.425,289.211 764.5,287.5 Z"/></g>
<g><path style="opacity:1" fill="#f2f2f2" d="M 921.5,273.5 C 926.844,273.334 932.177,273.501 937.5,274C 941.323,275.641 943.323,278.474 943.5,282.5C 939.733,283.074 936.733,281.907 934.5,279C 931.154,276.739 928.154,277.073 925.5,280C 929.286,281.83 933.286,283.163 937.5,284C 943.233,286.248 945.067,290.414 943,296.5C 939.197,299.37 934.864,300.704 930,300.5C 924.874,300.793 920.54,299.126 917,295.5C 916.506,293.866 916.34,292.199 916.5,290.5C 918.527,290.338 920.527,290.505 922.5,291C 923.594,294.1 925.761,295.6 929,295.5C 931.385,295.744 933.218,294.911 934.5,293C 934.18,291.347 933.18,290.347 931.5,290C 926.64,289.495 922.14,287.995 918,285.5C 915.255,280.248 916.422,276.248 921.5,273.5 Z"/></g>
<g><path style="opacity:1" fill="#f2f2f2" d="M 988.5,273.5 C 992.846,273.334 997.179,273.501 1001.5,274C 1004.55,274.606 1007.05,276.106 1009,278.5C 1013.13,295.039 1006.63,302.206 989.5,300C 980.111,296.72 976.944,290.22 980,280.5C 981.851,276.843 984.684,274.51 988.5,273.5 Z M 993.5,277.5 C 998.771,278.104 1001.77,281.104 1002.5,286.5C 1001.42,294.786 997.251,297.12 990,293.5C 986.449,287.043 987.616,281.71 993.5,277.5 Z"/></g>
<g><path style="opacity:1" fill="#f2f2f2" d="M 1015.5,273.5 C 1019.03,272.989 1022.2,273.656 1025,275.5C 1027.48,273.686 1030.31,273.02 1033.5,273.5C 1033.5,275.5 1033.5,277.5 1033.5,279.5C 1029.51,278.616 1026.68,279.949 1025,283.5C 1024.5,288.823 1024.33,294.156 1024.5,299.5C 1021.5,299.5 1018.5,299.5 1015.5,299.5C 1015.5,290.833 1015.5,282.167 1015.5,273.5 Z"/></g>
<g><path style="opacity:1" fill="#f2f2f2" d="M 1124.5,273.5 C 1130.76,272.872 1136.76,273.705 1142.5,276C 1145.15,279.327 1146.15,283.161 1145.5,287.5C 1138.47,287.17 1131.47,287.503 1124.5,288.5C 1126.1,295.212 1130.1,297.212 1136.5,294.5C 1137.62,293.086 1138.62,291.586 1139.5,290C 1141.47,289.505 1143.47,289.338 1145.5,289.5C 1145.28,295.231 1142.28,298.731 1136.5,300C 1124.72,302.464 1117.72,297.964 1115.5,286.5C 1115.83,280.194 1118.83,275.861 1124.5,273.5 Z M 1129.5,277.5 C 1133.43,277.134 1136.1,278.8 1137.5,282.5C 1133.5,283.833 1129.5,283.833 1125.5,282.5C 1126.16,280.185 1127.49,278.519 1129.5,277.5 Z"/></g>
<g><path style="opacity:1" fill="#f2f2f2" d="M 1209.5,273.5 C 1214.18,273.334 1218.85,273.501 1223.5,274C 1231.29,277.328 1234.12,283.161 1232,291.5C 1228.81,297.687 1223.64,300.687 1216.5,300.5C 1203.79,300.296 1198.63,293.963 1201,281.5C 1203.1,277.897 1205.93,275.23 1209.5,273.5 Z M 1214.5,277.5 C 1222.13,278.429 1224.96,282.762 1223,290.5C 1218.67,297.167 1214.33,297.167 1210,290.5C 1208.38,284.923 1209.88,280.589 1214.5,277.5 Z"/></g>
<g><path style="opacity:1" fill="#f2f2f2" d="M 1237.5,273.5 C 1240.71,273.012 1243.54,273.679 1246,275.5C 1251.06,273.042 1256.23,272.875 1261.5,275C 1262.33,275.833 1263.17,276.667 1264,277.5C 1264.5,284.826 1264.67,292.159 1264.5,299.5C 1261.83,299.5 1259.17,299.5 1256.5,299.5C 1256.67,293.158 1256.5,286.825 1256,280.5C 1254.05,277.297 1251.55,276.797 1248.5,279C 1247.11,280.171 1246.27,281.671 1246,283.5C 1245.5,288.823 1245.33,294.156 1245.5,299.5C 1242.83,299.5 1240.17,299.5 1237.5,299.5C 1237.5,290.833 1237.5,282.167 1237.5,273.5 Z"/></g>
<g><path style="opacity:1" fill="#f2f2f2" d="M 1277.5,273.5 C 1283.76,272.872 1289.76,273.705 1295.5,276C 1298.32,279.292 1299.65,283.125 1299.5,287.5C 1292.14,287.169 1284.8,287.503 1277.5,288.5C 1279.1,295.212 1283.1,297.212 1289.5,294.5C 1290.62,293.086 1291.62,291.586 1292.5,290C 1294.47,289.505 1296.47,289.338 1298.5,289.5C 1298.28,295.231 1295.28,298.731 1289.5,300C 1273.92,302.424 1267.42,295.924 1270,280.5C 1271.74,277.254 1274.24,274.921 1277.5,273.5 Z M 1282.5,277.5 C 1286.47,277.15 1289.14,278.817 1290.5,282.5C 1286.5,283.833 1282.5,283.833 1278.5,282.5C 1279.16,280.185 1280.49,278.519 1282.5,277.5 Z"/></g>
<g><path style="opacity:1" fill="#f3f3f3" d="M 1084.5,273.5 C 1087.52,273.335 1090.52,273.502 1093.5,274C 1096.21,279.247 1099.04,284.414 1102,289.5C 1104.33,284.833 1106.67,280.167 1109,275.5C 1110.79,273.771 1112.96,273.104 1115.5,273.5C 1112.52,282.471 1108.68,291.138 1104,299.5C 1101.67,300.833 1099.33,300.833 1097,299.5C 1092.53,290.892 1088.36,282.225 1084.5,273.5 Z"/></g>
<g><path style="opacity:1" fill="#f2f2f2" d="M 1150.5,273.5 C 1154.03,272.989 1157.2,273.656 1160,275.5C 1160.5,275 1161,274.5 1161.5,274C 1166.5,273.333 1171.5,273.333 1176.5,274C 1179.63,279.085 1182.63,284.251 1185.5,289.5C 1188.28,284.667 1190.78,279.667 1193,274.5C 1194.7,273.594 1196.53,273.261 1198.5,273.5C 1195.13,284.253 1190.63,294.586 1185,304.5C 1180.86,309.211 1175.69,310.711 1169.5,309C 1167.01,307.088 1167.17,305.254 1170,303.5C 1174.99,305.766 1178.49,304.433 1180.5,299.5C 1176.92,292.009 1173.09,284.676 1169,277.5C 1167.21,279.099 1165.05,279.933 1162.5,280C 1161.3,280.903 1160.47,282.069 1160,283.5C 1159.5,288.823 1159.33,294.156 1159.5,299.5C 1156.5,299.5 1153.5,299.5 1150.5,299.5C 1150.5,290.833 1150.5,282.167 1150.5,273.5 Z"/></g>
<g><path style="opacity:1" fill="#f9faf9" d="M 260.5,348.5 C 265.461,348.981 270.295,348.981 275,348.5C 279.17,349.573 283.336,350.573 287.5,351.5C 294.882,351.004 302.215,351.671 309.5,353.5C 311.133,352.256 312.133,352.756 312.5,355C 311.236,358.186 309.236,360.852 306.5,363C 300.727,367.289 294.894,370.789 289,373.5C 287.594,372.332 286.428,372.665 285.5,374.5C 273.833,374.5 262.167,374.5 250.5,374.5C 241.488,371.832 233.655,366.832 227,359.5C 225.249,357.788 224.582,355.788 225,353.5C 231.975,352.621 238.975,351.621 246,350.5C 248.903,351.939 251.57,351.606 254,349.5C 256.615,351.129 258.782,350.796 260.5,348.5 Z"/></g>
</svg>
