<svg xmlns="http://www.w3.org/2000/svg" viewBox="210 245 865 790" fill="currentColor">
  <path d="M357.5,250.5 C358.873,250.343 360.207,250.51 361.5,251 C392.105,284.273 423.438,316.94 455.5,349 C462.891,354.723 470.557,360.056 478.5,365 C489.44,370.054 500.274,375.221 511,380.5 C511.667,381.5 511.667,382.5 511,383.5 C491.5,401.667 472.667,420.5 454.5,440 C453.5,440.667 452.5,440.667 451.5,440 C429.432,419.388 407.932,398.221 387,376.5 C373.736,341.375 362.07,305.709 352,269.5 C351.491,262.523 353.325,256.189 357.5,250.5 Z"/>
  <path d="M917.5,250.5 C919.722,250.178 921.556,250.845 923,252.5 C925.674,256.846 927.507,261.513 928.5,266.5 C919.041,300.377 908.875,334.043 898,367.5 C895.411,373.016 892.078,378.016 888,382.5 C868.022,402.143 847.689,421.476 827,440.5 C807.126,420.96 787.626,401.126 768.5,381 C779.744,375.378 791.077,369.712 802.5,364 C811.521,358.156 820.188,351.822 828.5,345 C858.737,313.933 888.404,282.433 917.5,250.5 Z"/>
  <path d="M631.5,344.5 C632.721,345.028 633.887,345.695 635,346.5 C635.667,496.833 635.667,647.167 635,797.5 C604.307,805.048 573.474,812.048 542.5,818.5 C551.664,762.184 560.83,705.851 570,649.5 C570.717,643.775 570.384,638.109 569,632.5 C560.667,596.5 552.333,560.5 544,524.5 C515.815,499.312 487.982,473.812 460.5,448 C490.834,417.332 521.501,386.999 552.5,357 C554.392,356.027 556.392,355.36 558.5,355 C583.057,352.058 607.39,348.558 631.5,344.5 Z"/>
  <path d="M645.5,344.5 C671.814,348.414 698.147,352.248 724.5,356 C756.604,386.441 788.27,417.107 819.5,448 C791.992,473.84 764.159,499.34 736,524.5 C726.532,563.703 717.699,603.036 709.5,642.5 C718.892,700.848 728.059,759.182 737,817.5 C736.275,818.059 735.442,818.392 734.5,818.5 C704.206,811.477 674.04,804.143 644,796.5 C643.333,646.5 643.333,496.5 644,346.5 C644.717,345.956 645.217,345.289 645.5,344.5 Z"/>
  <path d="M323.5,421.5 C341.338,428.839 359.005,436.673 376.5,445 C397.543,452.903 418.71,460.403 440,467.5 C436.38,496.946 431.713,526.279 426,555.5 C425.167,556.333 424.333,557.167 423.5,558 C399.702,566.985 375.869,575.818 352,584.5 C330.274,577.37 309.107,568.87 288.5,559 C282.698,554.2 277.198,549.033 272,543.5 C251.231,518.573 231.064,493.24 211.5,467.5 C211.818,466.353 212.484,465.519 213.5,465 C250.77,451.749 287.437,437.249 323.5,421.5 Z"/>
  <path d="M954.5,421.5 C991.328,436.279 1028.33,450.779 1065.5,465 C1067.18,465.347 1068.18,466.347 1068.5,468 C1044.36,498.909 1019.03,528.909 992.5,558 C987.945,561.445 982.945,564.112 977.5,566 C961.47,572.601 945.303,578.768 929,584.5 C904.789,575.873 880.623,567.04 856.5,558 C855.299,557.097 854.465,555.931 854,554.5 C848.899,525.565 844.566,496.565 841,467.5 C879.984,454.75 917.817,439.416 954.5,421.5 Z"/>
  <path d="M824.5,455.5 C825.496,455.414 826.329,455.748 827,456.5 C833.122,490.431 838.455,524.431 843,558.5 C839.798,560.572 836.298,562.072 832.5,563 C818.577,566.643 804.744,570.476 791,574.5 C770.061,610.583 748.561,646.249 726.5,681.5 C725.914,681.291 725.414,680.957 725,680.5 C722.204,666.266 720.537,651.933 720,637.5 C727.704,601.351 736.037,565.351 745,529.5 C771.749,504.911 798.249,480.244 824.5,455.5 Z"/>
  <path d="M453.5,457.5 C454.873,457.343 456.207,457.51 457.5,458 C484.021,482.189 510.187,506.689 536,531.5 C543.872,566.524 551.872,601.524 560,636.5 C559.988,650.596 558.654,664.596 556,678.5 C555.451,682.617 553.784,683.284 551,680.5 C530.333,645.167 509.667,609.833 489,574.5 C472.263,569.273 455.43,564.273 438.5,559.5 C437.659,554.85 437.825,550.184 439,545.5 C443.944,516.172 448.777,486.839 453.5,457.5 Z"/>
  <path d="M440.5,571.5 C453.232,574.35 465.899,577.516 478.5,581 C488.044,595.917 497.21,611.084 506,626.5 C506.667,627.5 506.667,628.5 506,629.5 C489.196,630.828 472.363,630.828 455.5,629.5 C449.636,611.22 444.303,592.72 439.5,574 C439.743,573.098 440.077,572.265 440.5,571.5 Z"/>
  <path d="M838.5,571.5 C840.75,571.181 842.75,571.681 844.5,573 C838.953,590.681 833.787,608.514 829,626.5 C828.535,627.931 827.701,629.097 826.5,630 C808.503,630.5 790.503,630.667 772.5,630.5 C772.34,628.801 772.506,627.134 773,625.5 C781.959,611.083 790.792,596.583 799.5,582 C812.593,578.422 825.593,574.922 838.5,571.5 Z"/>
  <path d="M452.5,640.5 C473.836,640.333 495.169,640.5 516.5,641 C528.377,659.918 539.877,679.085 551,698.5 C551.332,703.19 550.998,707.857 550,712.5 C543.676,748.778 537.676,785.112 532,821.5 C531.529,823.246 530.862,824.913 530,826.5 C521.296,836.202 512.296,845.536 503,854.5 C502.228,854.355 501.561,854.022 501,853.5 C474.829,784.817 458.662,713.817 452.5,640.5 Z"/>
  <path d="M762.5,640.5 C784.503,640.333 806.503,640.5 828.5,641 C821.697,712.991 805.197,782.825 779,850.5 C776.974,855.502 774.307,855.835 771,851.5 C763.667,842.833 756.333,834.167 749,825.5 C741.843,784.225 735.01,742.892 728.5,701.5 C728.466,698.567 729.299,695.9 731,693.5 C741.511,675.806 752.011,658.139 762.5,640.5 Z"/>
  <path fill-rule="evenodd" d="M633.5,807.5 C637.846,807.334 642.179,807.501 646.5,808 C677.172,815.001 707.838,822.001 738.5,829 C749.649,841.154 760.482,853.654 771,866.5 C776.375,893.369 780.709,920.369 784,947.5 C774.833,956.667 765.667,965.833 756.5,975 C754.562,976.872 752.229,977.705 749.5,977.5 C712.932,972.289 676.265,967.955 639.5,964.5 C604.398,967.763 569.398,971.929 534.5,977 C531.167,977.667 527.833,977.667 524.5,977 C515,967.5 505.5,958 496,948.5 C498.799,921.368 502.799,894.368 508,867.5 C517.667,855.833 527.333,844.167 537,832.5 C538.214,830.951 539.714,829.785 541.5,829 C572.397,822.258 603.064,815.091 633.5,807.5 Z M551.5,851.5 C554.564,851.144 557.231,851.977 559.5,854 C571.633,864.465 583.466,875.298 595,886.5 C595.397,893.62 594.23,900.453 591.5,907 C584.772,909.419 577.938,910.252 571,909.5 C563.076,893.318 555.41,876.985 548,860.5 C546.98,856.553 548.147,853.553 551.5,851.5 Z M721.5,851.5 C726.604,850.612 729.937,852.612 731.5,857.5 C723.944,874.947 716.11,892.28 708,909.5 C701.044,910.372 694.21,909.539 687.5,907 C684.531,900.15 683.364,892.983 684,885.5 C696.695,874.301 709.195,862.968 721.5,851.5 Z"/>
  <path d="M630.5,974.5 C637.175,974.334 643.842,974.5 650.5,975 C677.495,978.066 704.495,981.066 731.5,984 C732.428,984.388 733.095,985.055 733.5,986 C717.698,1010.76 695.032,1024.42 665.5,1027 C647.833,1029 630.167,1029 612.5,1027 C584.116,1023.66 562.449,1009.99 547.5,986 C547.905,985.055 548.572,984.388 549.5,984 C576.716,981.44 603.716,978.273 630.5,974.5 Z"/>
</svg>
